<svg xmlns="http://www.w3.org/2000/svg" width="128" height="128" viewBox="0 0 128 128">
  <defs>
    <filter id="shadow" x="-10%" y="-10%" width="120%" height="120%">
      <feDropShadow dx="0" dy="2" stdDeviation="2" flood-color="#000000" flood-opacity="0.15"/>
    </filter>
  </defs>
  <!-- Fundo branco no formato squircle (cantos arredondados padrão GNOME / Trayscale) -->
  <rect x="8" y="8" width="112" height="112" rx="26" ry="26" fill="#FFFFFF" filter="url(#shadow)"/>
  <!-- Glifo do Antigravity centralizado -->
  <g transform="translate(24.5, 23.5) scale(3.3)">
    <path fill="#202124" d="M12.025 2q2.025 0 3.163 1.525T17.125 7q.65 1.575 1.25 3.5t1.275 3.875q.65 1.875 1.425 3.525t1.8 2.825q.2.225.175.525t-.225.525t-.475.25t-.55-.175q-1.975-1.55-3.25-3.463t-2.575-3.337q-.85-.95-1.812-1.5T12.025 13t-2.137.55t-1.813 1.5q-1.3 1.425-2.575 3.338T2.25 21.85q-.275.2-.55.175t-.475-.25T1 21.25t.175-.525Q2.2 19.55 2.975 17.9T4.4 14.375q.675-1.95 1.275-3.875T6.925 7q.8-1.95 1.938-3.475T12.025 2"/>
  </g>
</svg>
